<svg width="960" height="1200" viewBox="0 0 960 1200" fill="none" xmlns="http://www.w3.org/2000/svg">
  <rect width="960" height="1200" fill="#EAF0F7"/>
  <rect x="56" y="56" width="848" height="1088" rx="36" fill="url(#paint0_linear)"/>
  <circle cx="480" cy="410" r="168" fill="#D8E4F0"/>
  <path d="M240 936C240 790.239 358.239 672 504 672H456C601.761 672 720 790.239 720 936V960H240V936Z" fill="#D8E4F0"/>
  <rect x="176" y="1002" width="608" height="26" rx="13" fill="#C3D2E0"/>
  <rect x="290" y="1048" width="380" height="20" rx="10" fill="#C3D2E0"/>
  <path d="M120 144C120 130.745 130.745 120 144 120H266C279.255 120 290 130.745 290 144V176C290 189.255 279.255 200 266 200H144C130.745 200 120 189.255 120 176V144Z" fill="#DDF4F0"/>
  <path d="M160.672 160.52H171.952V142.44H178.192V160.52H189.472V166H160.672V160.52ZM193.199 142.44H204.759C211.559 142.44 215.799 146.56 215.799 152.68C215.799 158.92 211.559 162.96 204.759 162.96H199.439V176H193.199V142.44ZM204.199 157.72C207.639 157.72 209.359 155.88 209.359 152.68C209.359 149.48 207.639 147.68 204.199 147.68H199.439V157.72H204.199ZM220.16 142.44H226.4V170.52H239.92V176H220.16V142.44Z" fill="#0F766E"/>
  <defs>
    <linearGradient id="paint0_linear" x1="480" y1="56" x2="480" y2="1144" gradientUnits="userSpaceOnUse">
      <stop stop-color="#F8FBFD"/>
      <stop offset="1" stop-color="#EFF4FA"/>
    </linearGradient>
  </defs>
</svg>
